<mxfile host="app.diagrams.net" modified="2024-04-11T07:18:14.788Z" agent="Mozilla/5.0 (Macintosh; Intel Mac OS X 10_15_7) AppleWebKit/537.36 (KHTML, like Gecko) Chrome/123.0.0.0 Safari/537.36 Edg/123.0.0.0" version="24.2.1" etag="QpZ-gkXz-Ul--Z2M30yQ" type="github">
  <diagram name="Page-1" id="GvULkLOL5ZA9brVG8qSR">
    <mxGraphModel>
      <root>
        <mxCell id="0" />
        <mxCell id="1" parent="0" />
      </root>
    </mxGraphModel>
  </diagram>
</mxfile>
